G04*
G04 #@! TF.GenerationSoftware,Altium Limited,Altium Designer,24.6.1 (21)*
G04*
G04 Layer_Color=12632256*
%FSLAX44Y44*%
%MOMM*%
G71*
G04*
G04 #@! TF.SameCoordinates,6AF7BF49-1DCB-42FD-AE76-D863BB871C9A*
G04*
G04*
G04 #@! TF.FilePolarity,Positive*
G04*
G01*
G75*
%ADD14C,1.2500*%
%ADD15R,1.2500X1.2500*%
%ADD18C,1.4000*%
%ADD19R,1.4000X1.4000*%
%ADD20C,1.2000*%
%ADD21R,1.2000X1.2000*%
%ADD28R,1.3500X1.3500*%
%ADD29C,1.3500*%
%ADD30C,1.3000*%
%ADD31R,1.3000X1.3000*%
%ADD32R,1.5000X1.5000*%
%ADD33C,1.5000*%
D14*
X486410Y1022680D02*
D03*
X511810D02*
D03*
X537210D02*
D03*
X562610D02*
D03*
Y943280D02*
D03*
X537210D02*
D03*
X511810D02*
D03*
X486410Y1175080D02*
D03*
X511810D02*
D03*
X537210D02*
D03*
X562610D02*
D03*
Y1095680D02*
D03*
X537210D02*
D03*
X511810D02*
D03*
X486410Y1327480D02*
D03*
X511810D02*
D03*
X537210D02*
D03*
X562610D02*
D03*
Y1248080D02*
D03*
X537210D02*
D03*
X511810D02*
D03*
D15*
X486410Y943280D02*
D03*
Y1095680D02*
D03*
Y1248080D02*
D03*
D18*
X859960Y1097880D02*
D03*
Y1122880D02*
D03*
Y1147880D02*
D03*
Y1300280D02*
D03*
Y1275280D02*
D03*
Y1250280D02*
D03*
Y996080D02*
D03*
Y971080D02*
D03*
Y946080D02*
D03*
D19*
Y1172880D02*
D03*
Y1325280D02*
D03*
Y1021080D02*
D03*
D20*
X295910Y982980D02*
D03*
X321310D02*
D03*
X295910Y1135380D02*
D03*
X321310D02*
D03*
X295910Y1287830D02*
D03*
X321310D02*
D03*
D21*
X346710Y982980D02*
D03*
Y1135380D02*
D03*
Y1287830D02*
D03*
D28*
X656040Y956310D02*
D03*
Y1109980D02*
D03*
Y1262380D02*
D03*
X746040Y1154430D02*
D03*
Y1306830D02*
D03*
Y999490D02*
D03*
D29*
X746040Y956310D02*
D03*
Y1109980D02*
D03*
Y1262380D02*
D03*
X656040Y1154430D02*
D03*
Y1306830D02*
D03*
Y999490D02*
D03*
D30*
X162980Y1140780D02*
D03*
Y1160780D02*
D03*
D31*
Y1180780D02*
D03*
D32*
X150710Y1011080D02*
D03*
D33*
Y1031080D02*
D03*
M02*
